<svg width="55.012276" height="43.982849" viewBox="0 0 55.0123 43.9828" fill="none" xmlns="http://www.w3.org/2000/svg" xmlns:xlink="http://www.w3.org/1999/xlink">
	<desc>
			Created with Pixso.
	</desc>
	<defs/>
	<rect id="Сочетание 2" width="52.000000" height="24.000000" transform="translate(1.506142 9.991425)" fill="#FFFFFF" fill-opacity="0"/>
	<path id="Форма 1" d="M5.12 32.49L11.05 26.56C11.64 25.97 11.64 25.03 11.05 24.44C10.45 23.85 9.52 23.85 8.93 24.44L0.44 32.93C-0.15 33.52 -0.15 34.45 0.44 35.05L8.93 43.53C9.52 44.13 10.45 44.13 11.05 43.53C11.64 42.94 11.64 42.01 11.05 41.41L5.12 35.49L53.5 35.49L53.5 32.49L5.12 32.49Z" fill="#36E271" fill-opacity="1.000000" fill-rule="evenodd"/>
	<path id="Форма 1" d="M49.88 8.49L43.96 2.56C43.36 1.97 43.36 1.03 43.96 0.44C44.55 -0.15 45.48 -0.15 46.08 0.44L54.56 8.93C55.16 9.52 55.16 10.45 54.56 11.05L46.08 19.53C45.48 20.13 44.55 20.13 43.96 19.53C43.36 18.94 43.36 18.01 43.96 17.41L49.88 11.49L1.5 11.49L1.5 8.49L49.88 8.49Z" fill="#36E271" fill-opacity="1.000000" fill-rule="evenodd"/>
</svg>
